<svg width="177" height="185" viewBox="0 0 177 185" fill="none" xmlns="http://www.w3.org/2000/svg">
<ellipse cx="87.0176" cy="148.644" rx="39.8539" ry="26.96" transform="rotate(-15 87.0176 148.644)" fill="white"/>
<path d="M119 7L119 144" stroke="white" stroke-width="14" stroke-linecap="round"/>
<path d="M119 7C127.092 55.4524 197.224 80.3333 154.066 117" stroke="white" stroke-width="14" stroke-linecap="round"/>
<path d="M106.93 9.51736C107.726 6.06145 105.572 2.58976 102.067 2.04601C83.9589 -0.763576 65.3647 2.11187 48.884 10.362C30.4834 19.5732 15.8677 34.9085 7.55078 53.7303C-0.766147 72.552 -2.2644 93.6837 3.31372 113.491C8.30981 131.231 18.7029 146.915 32.9722 158.412C35.7338 160.638 39.7513 159.893 41.7704 156.978C43.7896 154.062 43.0423 150.082 40.3084 147.823C28.4811 138.051 19.8621 124.874 15.6757 110.009C10.9071 93.0765 12.1879 75.0115 19.2979 58.9211C26.4079 42.8307 38.9026 29.7208 54.633 21.8463C68.4426 14.9333 83.9881 12.4346 99.1768 14.6C102.688 15.1005 106.134 12.9733 106.93 9.51736Z" fill="white"/>
<path d="M110 90.5C110 102.926 99.9264 113 87.5 113C75.0736 113 65 102.926 65 90.5C65 78.0736 75.0736 68 87.5 68C99.9264 68 110 78.0736 110 90.5ZM74.5865 90.5C74.5865 97.6319 80.3681 103.413 87.5 103.413C94.6319 103.413 100.413 97.6319 100.413 90.5C100.413 83.3681 94.6319 77.5865 87.5 77.5865C80.3681 77.5865 74.5865 83.3681 74.5865 90.5Z" fill="white"/>
<path d="M80.0546 51.611C79.7599 50.0034 78.2106 48.9311 76.6306 49.3492C70.7474 50.9058 65.2672 53.7713 60.5962 57.7512C55.9012 61.7517 52.1628 66.7596 49.6436 72.3972C48.9893 73.8615 49.7652 75.5355 51.2669 76.0986C52.7854 76.6681 54.4662 75.8849 55.1468 74.4128C57.3037 69.7471 60.4409 65.5996 64.3519 62.2672C68.2572 58.9397 72.822 56.5204 77.7235 55.1637C79.289 54.7303 80.3475 53.2088 80.0546 51.611Z" fill="white"/>
<path d="M87.5 35.0042C87.5 32.7927 85.7052 30.9861 83.4987 31.1335C70.5779 31.9967 58.2518 37.0225 48.4299 45.502C38.6271 53.9649 31.9175 65.3513 29.266 77.8937C28.804 80.0788 30.3627 82.1264 32.5753 82.4313C34.7807 82.7352 36.7997 81.1912 37.283 79.0181C39.648 68.3832 45.3963 58.7393 53.7331 51.542C62.0843 44.3322 72.5302 40.0114 83.4995 39.1629C85.7043 38.9923 87.5 37.2157 87.5 35.0042Z" fill="white"/>
</svg>
